# xmcd
#
# Track frame offsets:
#	150
#	20287
#	38812
#	58177
#	79288
#	100682
#	122625
#	141200
#	159926
#	181083
#	203797
#
# Disc length: 3004 seconds
#
# Revision: 3
# Processed by: cddbd v1.5.2PL0 Copyright (c) Steve Scherf et al.
# Submitted via: EZCDAudioConverter 8.0.2.1
#
DISCID=880bba0b
DTITLE=Bằng Kiều, Minh Tuyết - Bởi Vì Anh Yêu Em
DYEAR=2006
DGENRE=World Pop
TTITLE0=Bằng Kiều, Minh Tuyết - Phút giây mình chia tay
TTITLE1=Bằng Kiều, Minh Tuyết - Bởi Vì Anh Yêu Em
TTITLE2=Minh Tuyết - Kẻ đứng sau tình yêu
TTITLE3=Bằng Kiều - Rồi xa người yêu
TTITLE4=Bằng Kiều, Minh Tuyết - Phía sau nụ cười
TTITLE5=Bằng Kiều - Biết yêu là hết mong chờ
TTITLE6=Minh Tuyết - Anh đã ra đi
TTITLE7=Bằng Kiều, Minh Tuyết - Nơi thời gian ngừng lại
TTITLE8=Bằng Kiều - Mùa thu biển gọi
TTITLE9=Minh Tuyết - Giấc mơ có thật
TTITLE10=Bằng Kiều, Minh Tuyết - Thì thôi em nhé
EXTD=
EXTT0=
EXTT1=
EXTT2=
EXTT3=
EXTT4=
EXTT5=
EXTT6=
EXTT7=
EXTT8=
EXTT9=
EXTT10=
PLAYORDER=
